<svg id="Layer_1" data-name="Layer 1" xmlns="http://www.w3.org/2000/svg" viewBox="0 0 93.81 93.81"><defs><style>.cls-1{fill:#fff;}.cls-2{fill:#231f20;}.cls-3{fill:#504a4a;}.cls-4{fill:#7b7575;}.cls-5{fill:#a6a1a1;}.cls-6{fill:#d6d3d3;}.cls-7{fill:#b6e3f3;}.cls-8{fill:#64cdf6;}.cls-9{fill:#2b8fc9;}.cls-10{fill:#5abe8d;}.cls-11{fill:#f1f2f9;}.cls-12{fill:#ed6c66;}.cls-13{fill:#f8d889;}.cls-14{fill:#f9d889;}.cls-15{fill:#fbd1bb;}.cls-16{fill:#935253;}.cls-17{fill:#242021;}.cls-18{fill:#252122;}.cls-19{fill:#ee6c66;}</style></defs><title>ai-poemgenerator-logo</title><path class="cls-1" d="M298.65,473.54q-32.89,0-65.79,0c-.59,0-.77-.07-.77-.73q0-46.18,0-92.38c0-.58.14-.69.7-.69h92.37c.53,0,.73.06.73.68q0,46.23,0,92.47c0,.54-.11.68-.66.65-1-.05-2,0-3,0,.42-2.51.54-5.06.75-7.6a13.23,13.23,0,0,0,.12-3.72,3.72,3.72,0,0,0-1.63-2.44,17.32,17.32,0,0,0-2.25-1.2c-3.76-1.81-7.55-3.55-11.31-5.36-2.39-1.14-4.8-2.25-7.19-3.39a1.27,1.27,0,0,1-.86-1.5,21.63,21.63,0,0,0-.54-7.89c-.31-1.59-.25-1.72,1.28-2.28a12,12,0,0,0,7.15-7.24,29.71,29.71,0,0,0,1.73-8,78,78,0,0,0,.79-11.83,26.35,26.35,0,0,0-2.37-10.62,16.28,16.28,0,0,0-10.06-8.59c-1.2-.39-1.2-.38-1.2-1.68a2.77,2.77,0,0,0-1-2.16,4.94,4.94,0,0,0-2-1.2,1.46,1.46,0,0,1-1.13-1.37,33.56,33.56,0,0,1-.08-3.47,8.09,8.09,0,0,0,0-1.1c0-.24-.12-.5-.42-.51s-.39.24-.45.49a3.76,3.76,0,0,0,0,.82q0,1.88,0,3.75a1.12,1.12,0,0,1-.94,1.24,3.61,3.61,0,0,0-2.88,3.64,1.35,1.35,0,0,1-1.14,1.39,15.32,15.32,0,0,0-8.25,5.89,18,18,0,0,0-2.86,7.16,49.93,49.93,0,0,0-.75,8.72c-.07,4.14.07,8.28.39,12.41a32.14,32.14,0,0,0,.85,5.59,9.12,9.12,0,0,0,5.26,6.5,2.18,2.18,0,0,1,1.45,2,22.33,22.33,0,0,1,0,3.92,24.25,24.25,0,0,0,0,5.11c.11.93-.09,1.2-1.12,1.58l-16.87,6.29c-.34.13-.68.26-1,.41a4.52,4.52,0,0,0-2.85,5.09c.32,3,.43,5.95.68,8.92.13,1.48.23,1.64,1.76,1.64,5.57,0,11.15-.13,16.72,0,5.91.18,11.82.09,17.72.15a1.74,1.74,0,0,1,1,.17A.18.18,0,0,1,298.65,473.54Z" transform="translate(-232.09 -379.76)"/><path class="cls-2" d="M298.64,473.39l-26.31-.21-9.78,0c-1.12,0-1.3-.22-1.37-1.32-.21-3-.39-6-.66-9-.29-3.36.6-4.9,3.76-6.09,5.36-2,10.73-4,16.1-6a5.2,5.2,0,0,0,1.9-.81c.44-.47-.06-1.26-.07-1.92,0-1.74.08-3.47.15-5.2,0-.67,0-1.34,0-2a2.61,2.61,0,0,0-1.72-2.76c-3.05-1.31-4.58-4-5.2-7.14a85.75,85.75,0,0,1-1.08-17.46,39,39,0,0,1,1.27-10.92,15.55,15.55,0,0,1,11-11.11c.45-.13.59-.27.59-.78a4.06,4.06,0,0,1,3.39-4.23c.5-.11.53-.36.53-.76,0-1.52,0-3,0-4.57,0-.57.08-1.09.79-1.07s.7.55.7,1.07c0,1.43.07,2.86,0,4.29,0,.71.14,1.05.9,1.25a4.77,4.77,0,0,1,2.84,2,2.35,2.35,0,0,1,.42,2c-.2.64.06.77.6.93a16.52,16.52,0,0,1,9.3,6.5,21.48,21.48,0,0,1,3.39,9,49.45,49.45,0,0,1-.09,12.92,55.74,55.74,0,0,1-1.36,8.91c-1.31,4.73-3.91,8.33-8.83,9.81-.65.19-.54.58-.44,1a28.82,28.82,0,0,1,.84,6.86,11.08,11.08,0,0,1-.17,1.81c-.12.64.09.95.69,1.23,5.06,2.35,10.1,4.74,15.14,7.13l5.08,2.45a4.18,4.18,0,0,1,2.44,4.48c-.21,2.79-.47,5.58-.71,8.36a2.09,2.09,0,0,1-.51,1.51h-4.38c-1.56-.21-3.12,0-4.69-.09h-11C301,473.41,299.8,473.52,298.64,473.39Z" transform="translate(-232.09 -379.76)"/><path class="cls-3" d="M311.6,473.39l5.74,0a.58.58,0,0,1,.5.17h-6.22c-.05,0-.07-.06-.06-.09S311.59,473.39,311.6,473.39Z" transform="translate(-232.09 -379.76)"/><path class="cls-4" d="M311.6,473.39a.39.39,0,0,1,0,.15h-4.93c-.06,0-.08-.06-.06-.09s0-.06,0-.06Z" transform="translate(-232.09 -379.76)"/><path class="cls-5" d="M306.67,473.39a.77.77,0,0,1,0,.15h-4.57q-.09,0-.06-.09s0-.06.05-.06Z" transform="translate(-232.09 -379.76)"/><path class="cls-6" d="M302.11,473.39c0,.05,0,.1,0,.15h-3.47a.76.76,0,0,1,0-.15Z" transform="translate(-232.09 -379.76)"/><path class="cls-2" d="M272.13,421.57q-.18,12.14-.34,24.29c0,.82-.31,1.13-1.12,1.19-3.58.28-7.15.61-10.73.9-.38,0-.56.13-.62.58-.65,5.37-1.34,10.74-2,16.11-.17,1.4-.24,1.51-1.7,1.41a32.6,32.6,0,0,1-6.23-.8c-2.35-.63-3.34-2.47-3-5.3q.76-6.06,1.58-12.11c.07-.58-.12-.65-.61-.66-1.58,0-3.17-.14-4.75-.15-.88,0-1.24-.34-1.24-1.25,0-3.48-.1-6.95-.11-10.42,0-.61-.1-.88-.78-.78a20.37,20.37,0,0,1-2.46.19c-1.36.05-1.92-.49-1.89-1.83s.12-2.49.18-3.74c0-.67.41-.95,1.06-1,1-.05,1.88-.15,2.83-.18.48,0,.6-.16.57-.65-.11-1.95-.09-1.94-2-1.79a16,16,0,0,1-1.83,0,1.27,1.27,0,0,1-1.39-1.35c0-1.46.12-2.92.19-4.38,0-.65.54-.75,1-.79,1.07-.09,2.13-.18,3.19-.22.45,0,.53-.16.54-.59,0-2.2,0-2.2-2.07-2-.55,0-1.1.06-1.64,0-1,0-1.57-.53-1.56-1.5,0-1.37.11-2.74.19-4.11,0-.64.45-.88,1-.92,1-.07,1.94-.17,2.92-.21.42,0,.55-.13.53-.59-.1-1.78-.08-1.77-1.86-1.67-.7,0-1.4.07-2.1,0a1.23,1.23,0,0,1-1.29-1.35c0-1.43.11-2.86.18-4.29a.8.8,0,0,1,.82-.81c1-.08,2-.19,3-.25.47,0,.6-.19.61-.66,0-1.7.09-3.41.09-5.11,0-.81.29-1.18,1.11-1.17,9.84.2,19.68,0,29.51.29a2.15,2.15,0,0,1,2.34,2.23,12,12,0,0,1,.08,1.46l-.33,23.84Z" transform="translate(-232.09 -379.76)"/><path class="cls-7" d="M275.82,418.13a69.89,69.89,0,0,1,.71-13c.93-5.22,3.49-9.29,8.47-11.53a16.77,16.77,0,0,1,11-.91c7.3,1.71,11.18,6.59,12.55,13.74a44.05,44.05,0,0,1,.1,12.92,60.88,60.88,0,0,1-1.36,9.18c-1.47,5.56-5.1,8.77-10.81,9.42a42,42,0,0,1-11.74-.18c-5-.83-7.09-3-8-8A84.67,84.67,0,0,1,275.82,418.13Z" transform="translate(-232.09 -379.76)"/><path class="cls-7" d="M274.45,471.69h-7.53c-1.22,0-2.44,0-3.66,0-.45,0-.61-.12-.64-.61-.18-2.92-.41-5.83-.6-8.74-.17-2.44.35-3.27,2.64-4.14,4.2-1.59,8.4-3.15,12.6-4.71,1.65-.62,3.31-1.2,4.94-1.86.57-.23.76-.07,1,.43,1.67,3.44,6.22,6.19,10.66,4.7a8.68,8.68,0,0,0,5.42-5.29c.23-.57.36-.77,1.05-.44,6.31,3,12.65,6,19,9,.41.2.81.42,1.21.62a2.46,2.46,0,0,1,1.4,2.46c-.06,2.28-.35,4.55-.52,6.82,0,.16,0,.31-.06.46-.16,1.73-.16,1.73-1.88,1.72-3.32,0-6.63-.09-9.95-.08-.73,0-.85-.23-.81-.88.15-2.61.26-5.23.36-7.84.05-1.06-.13-1.22-1.19-1.23l-31.79-.29a10,10,0,0,0-1.09.08,1.58,1.58,0,0,0-1.55,1.78c.14,1.69.39,3.38.61,5.07C274.17,469.67,274.31,470.65,274.45,471.69Z" transform="translate(-232.09 -379.76)"/><path class="cls-8" d="M291.37,463.5c5.15,0,10.29,0,15.44,0,.62,0,.83.14.79.8-.16,2.37-.27,4.74-.35,7.11,0,.56-.27.56-.67.55l-20.28-.13c-3.13,0-6.27-.1-9.4-.06-.87,0-1-.31-1.12-1.08-.22-2.08-.52-4.15-.82-6.23-.17-1.15-.13-1.22,1.07-1.22h15.34Z" transform="translate(-232.09 -379.76)"/><path class="cls-9" d="M283.87,442.9a22.29,22.29,0,0,0,4.52,1.47A19.35,19.35,0,0,0,298,444c.49-.16.76-.16.72.44a2.31,2.31,0,0,0,0,.37c.16,3.92.5,3.55-3.12,4.3a18.41,18.41,0,0,1-11.4-1.45.76.76,0,0,1-.49-.85C283.76,445.56,283.81,444.29,283.87,442.9Z" transform="translate(-232.09 -379.76)"/><path class="cls-9" d="M298.14,450.08a7.06,7.06,0,0,1-7.51,5.53c-3.06-.2-6.42-2.94-6.71-6.39A21.36,21.36,0,0,0,298.14,450.08Z" transform="translate(-232.09 -379.76)"/><path class="cls-9" d="M292.56,443.36a19.15,19.15,0,0,1-8-1.83,2.55,2.55,0,0,1-.83-2.17c.13-.33.42-.18.62-.15a52,52,0,0,0,11,.33c.67-.05,1.34-.11,2-.22.41-.07.54.08.59.45s.12.72.19,1.08c.3,1.58.3,1.6-1.24,2A19.18,19.18,0,0,1,292.56,443.36Z" transform="translate(-232.09 -379.76)"/><path class="cls-10" d="M294.42,390.86a19.7,19.7,0,0,0-5.2,0c-.4.06-.45-.12-.46-.45a2.69,2.69,0,0,1,1.95-2.57,4.5,4.5,0,0,1,4.14,1.15,1.46,1.46,0,0,1,.53,1.21C295.35,390.74,295.16,391,294.42,390.86Z" transform="translate(-232.09 -379.76)"/><path class="cls-11" d="M259.6,446.4c.23-2.72.76-5.41.88-8.15a13.85,13.85,0,0,0-1.39-6.53,39.29,39.29,0,0,0-2.52-4.53c-.5-.79-1-.85-1.49-.16a34.66,34.66,0,0,0-5.32,9.18,27.68,27.68,0,0,0-1.21,6.62c-.08.9.14,2-.33,2.66s-1.64.05-2.51.1-1.46,0-2.19,0c-.45,0-.64-.09-.65-.6q0-5-.14-10c0-.49.17-.62.61-.65,1.16-.07,2.31-.19,3.46-.27.77-.06,1.12-.4.93-1.19-.22-1-.39-2-.65-2.93a2.57,2.57,0,0,0-2.3-1.92c-.45-.07-.91-.07-1.36-.14s-.94.23-1-.21a9,9,0,0,1-.15-2.27c0-.22.37-.12.57-.14,1.15-.1,2.3-.21,3.45-.29.75-.05,1-.44.88-1.16s-.3-1.67-.52-2.49c-.49-1.78-1.25-2.36-3.12-2.45l-.73,0c-.12,0-.28,0-.36,0-.85-.67-.22-1.62-.44-2.42-.16-.56.32-.44.62-.47l3.46-.29c.69-.06,1-.43.86-1.11-.19-.92-.4-1.84-.62-2.75a2.7,2.7,0,0,0-2.66-2.21,7.73,7.73,0,0,0-1.36,0c-.61.05-.84-.12-.86-.78-.06-1.63-.1-1.64,1.56-1.82.82-.08,1.64-.11,2.46-.2s1-.43.85-1.19-.28-1.49-.45-2.23c-.45-1.91-1.24-2.56-3.23-2.71-1.78-.13-1.78-.13-1.75-1.93,0-.91,0-1.83,0-2.74,0-.47.07-.69.63-.69q14.07.14,28.15.22c1.08,0,1.27.19,1.26,1.31q0,6.12-.1,12.25-.24,17.77-.47,35.54c0,.73-.1,1-.93,1.09-3.07.21-6.13.53-9.19.8A.8.8,0,0,1,259.6,446.4Z" transform="translate(-232.09 -379.76)"/><path class="cls-12" d="M259,439.09c-.27,2.25-.63,5.17-1,8.1q-.87,6.92-1.75,13.83c-.12,1-.26,2-.36,3,0,.43-.17.59-.62.53-.87-.12-1.75-.23-2.63-.27-.53,0-.66-.23-.59-.73.4-2.67.79-5.35,1.18-8q1.14-7.89,2.29-15.78a7.23,7.23,0,0,1,.36-2.06c.34-.72,1.19-.26,1.81-.42C259,436.91,259,437,259,439.09Z" transform="translate(-232.09 -379.76)"/><path class="cls-12" d="M247.85,460.76c.32-2.63.62-5.25,1-7.87.48-3.86,1.08-7.7,1.41-11.58a26.67,26.67,0,0,1,.7-3.94c.15-.61.43-.71,1-.47a3.7,3.7,0,0,0,.69.21c.58.14,1.42-.05,1.67.43s-.09,1.17-.18,1.77q-1.25,8.61-2.5,17.22c-.32,2.25-.68,4.5-1,6.76-.08.62-.29.69-.81.55C248.41,463.46,247.82,462.54,247.85,460.76Z" transform="translate(-232.09 -379.76)"/><path class="cls-13" d="M237.73,431.63c.12-1.87.12-1.91,1.84-2.05a24.1,24.1,0,0,1,4.73-.11,1.49,1.49,0,0,1,1.46,1.21c.53,2,.54,2-1.57,2.12-1.85.11-3.69.26-5.54.42-1.09.1-1.09.13-1-1C237.69,432,237.72,431.73,237.73,431.63Z" transform="translate(-232.09 -379.76)"/><path class="cls-14" d="M237.09,422.56c0-.37-.13-1.26.24-1.78s1.36-.19,2.07-.3a20.42,20.42,0,0,1,3.83-.13c1.42.06,1.69.28,2,1.6.39,1.59.39,1.59-1.26,1.73-1.88.15-3.76.3-5.64.47C237,424.27,237,424.28,237.09,422.56Z" transform="translate(-232.09 -379.76)"/><path class="cls-13" d="M241.13,402.07h.45c2.35,0,2.92.55,3.11,2.91,0,.38-.17.36-.42.38-2.45.18-4.91.35-7.35.56-.68.06-.86-.15-.77-.79a10.3,10.3,0,0,0,.14-2c0-.57.17-.81.75-.83,1.36-.07,2.72-.17,4.08-.26Z" transform="translate(-232.09 -379.76)"/><path class="cls-13" d="M241.51,411h.64c3,0,2.43.49,3.1,2.79.1.36-.06.49-.41.51-2.52.18-5,.38-7.55.57-.35,0-.58,0-.53-.49q.11-1.23.12-2.46c0-.52.24-.67.72-.69,1.3-.07,2.61-.17,3.91-.26Z" transform="translate(-232.09 -379.76)"/><path class="cls-15" d="M255.5,435.88a10.61,10.61,0,0,1-3.32-.4c-.41-.11-.53-.28-.29-.68q.56-1,1.05-2c.18-.36.35-.38.69-.18a4.53,4.53,0,0,0,3.85.41c.42-.13.57,0,.73.39.83,2,.6,2.37-1.62,2.46C256.23,435.89,255.86,435.88,255.5,435.88Z" transform="translate(-232.09 -379.76)"/><path class="cls-16" d="M255.73,428.67c.49.86.91,1.59,1.34,2.32.26.43.2.68-.34.7l-1,0c-.59,0-1.27-.1-1.53-.61s.4-.8.64-1.2S255.37,429.17,255.73,428.67Z" transform="translate(-232.09 -379.76)"/><path class="cls-2" d="M291,419.82a36,36,0,0,1-9.43-1.28,6.61,6.61,0,0,1-3.65-2.41c-1.55-2.13-.93-5,1.46-6.69,2-1.42,4.3-1.57,6.63-1.44,4.73.26,9.47.56,14.2.85a16.84,16.84,0,0,1,2.36.23c3,.59,4.23,3.72,2.59,6.48a6.26,6.26,0,0,1-3.81,2.77A37.1,37.1,0,0,1,291,419.82Z" transform="translate(-232.09 -379.76)"/><path class="cls-2" d="M292.08,434.88a21.46,21.46,0,0,1-7.12-1c-1.45-.52-2.69-1.35-2.95-3a4.14,4.14,0,0,1,1.88-4.16,7.71,7.71,0,0,1,2-1,18.28,18.28,0,0,1,4.74-.83,22.4,22.4,0,0,1,7.61.47,7.11,7.11,0,0,1,2.24,1,3.88,3.88,0,0,1,0,6.68,13.5,13.5,0,0,1-5.07,1.64A23.25,23.25,0,0,1,292.08,434.88Z" transform="translate(-232.09 -379.76)"/><path class="cls-17" d="M257.11,402.28h-7.84c-.51,0-1.05,0-1.07-.68s.51-.8,1.07-.79l15.78.35c.51,0,.93.16.93.75s-.41.72-.94.72h-7.93Z" transform="translate(-232.09 -379.76)"/><path class="cls-17" d="M257.6,411.4h-6.48c-.55,0-1.11,0-1.09-.75s.53-.72,1.05-.73l13.25-.24c.49,0,1.05,0,1.09.65s-.51.82-1.06.82H257.6Z" transform="translate(-232.09 -379.76)"/><path class="cls-18" d="M256.38,405.5h6.11c.56,0,1.21,0,1.2.74s-.6.73-1.15.73l-12.41,0c-.53,0-1-.07-1-.72s.55-.75,1.09-.75h6.21Z" transform="translate(-232.09 -379.76)"/><path class="cls-17" d="M258.14,417.92h6c.51,0,1,0,1.1.64s-.52.81-1.06.83l-12.58.52c-.52,0-1-.15-1-.71s.43-.74.93-.76l6.57-.29Z" transform="translate(-232.09 -379.76)"/><path class="cls-17" d="M257.22,416c-1.92,0-3.83,0-5.75,0-.52,0-1,0-1.06-.69s.45-.76,1-.78l11.59-.37c.53,0,1.14-.06,1.15.68s-.6.79-1.17.79h-5.75Z" transform="translate(-232.09 -379.76)"/><path class="cls-17" d="M256.9,422h4.74c.54,0,1,.11,1,.76s-.52.72-1.05.71l-9.47-.21c-.56,0-1.09-.12-1.05-.83s.59-.64,1.09-.64c1.58,0,3.16,0,4.74,0Z" transform="translate(-232.09 -379.76)"/><path class="cls-19" d="M291.52,418.35a38.39,38.39,0,0,1-9.2-1.11,7.1,7.1,0,0,1-1.93-.8c-2.46-1.47-2.47-4.28-.08-5.86a8.07,8.07,0,0,1,5.08-1.1c4.83.23,9.66.54,14.49.83.73,0,1.46.09,2.19.18a2.54,2.54,0,0,1,2.15,3.49,4.12,4.12,0,0,1-2.74,2.72,28.18,28.18,0,0,1-7,1.45C293.36,418.26,292.26,418.3,291.52,418.35Z" transform="translate(-232.09 -379.76)"/><path class="cls-13" d="M294.59,429.73c0,.94,0,1.89,0,2.83,0,.48-.13.72-.66.75-1.22.05-2.43.09-3.65.05-.37,0-.54-.12-.56-.52a29.56,29.56,0,0,1,.32-6.09c.06-.38.28-.42.56-.46,1.25-.15,2.5-.06,3.74-.09.49,0,.43.31.42.61,0,1-.09,1.95-.14,2.92Z" transform="translate(-232.09 -379.76)"/><path class="cls-13" d="M283.43,430.2a3.15,3.15,0,0,1,1.8-2.65,11.1,11.1,0,0,1,2.83-.95c.36-.09.58,0,.49.44a23.61,23.61,0,0,0-.3,5.44c0,.6-.11.7-.71.56a10.27,10.27,0,0,1-2.76-.85A2.12,2.12,0,0,1,283.43,430.2Z" transform="translate(-232.09 -379.76)"/><path class="cls-13" d="M296.12,429.67c0-.94.09-1.88.12-2.82,0-.34.08-.51.47-.43a8.11,8.11,0,0,1,3.12,1.18,2.39,2.39,0,0,1-.16,4.1,10.4,10.4,0,0,1-3.05,1.14c-.47.12-.58,0-.56-.43,0-.91,0-1.83,0-2.74Z" transform="translate(-232.09 -379.76)"/></svg>